<?xml version="1.0" encoding="UTF-8"?>
<!-- Generated by Pixelmator Pro 3.6.16 -->
<svg width="800" height="500" viewBox="0 0 800 500" xmlns="http://www.w3.org/2000/svg">
    <path id="Shape" fill="#010101" fill-rule="evenodd" stroke="none" d="M 150.104797 344.862488 C 140.972137 344.786835 129.399872 344.358826 124.388611 343.911346 C 119.37735 343.463837 110.983521 342.220581 105.735718 341.148499 C 100.487885 340.076447 93.367706 337.930847 89.913071 336.380493 C 86.458435 334.830139 81.127243 331.931274 78.065964 329.938568 C 75.004684 327.945862 69.94313 323.72168 66.818069 320.551544 C 63.693008 317.381378 59.49205 311.658936 57.482635 307.834991 C 55.473206 304.011047 52.963608 298.319397 51.905731 295.18689 C 50.84787 292.054382 49.251694 285.893341 48.358658 281.495697 C 46.962891 274.622345 46.665817 261.709015 46.242203 189.5 C 45.913162 133.407959 46.118896 99.85199 46.86145 88.5 C 47.473068 79.150024 48.875427 67.49115 49.977829 62.591431 C 51.080215 57.691772 53.851349 49.816772 56.13591 45.091431 C 59.332397 38.479919 61.927048 34.877441 67.394821 29.459229 C 71.968918 24.926575 77.0867 21.075562 81.761307 18.648743 C 85.75502 16.575439 93.266479 13.80249 98.453461 12.486755 C 103.640442 11.170959 113.647858 9.510681 120.692169 8.79718 C 127.736481 8.08374 142.5 7.5 153.5 7.5 C 164.5 7.5 179.239075 8.081299 186.25351 8.791809 C 193.267944 9.502319 202.49295 10.960327 206.75351 12.031921 C 211.014069 13.103455 218.774994 16.077087 224 18.640015 C 231.764496 22.448486 234.979218 24.779541 241.597198 31.399902 C 247.93219 37.737122 250.611053 41.358398 253.906158 48.039063 C 256.222595 52.735535 259.016846 59.935486 260.115601 64.039063 C 261.463745 69.074097 262.464172 77.677795 263.192413 90.5 C 263.887421 102.736694 264.084015 137.799133 263.74472 189 C 263.30249 255.736176 262.959351 270.025238 261.607513 278 C 260.721802 283.225006 259.059509 290.424988 257.913544 294 C 256.767578 297.575012 254.410187 303.200012 252.674927 306.5 C 250.829224 310.01001 246.39267 315.612488 241.984314 320 C 237.839752 324.125 231.885742 329.009583 228.753174 330.854614 C 225.620605 332.699646 220.254303 335.341522 216.828094 336.725433 C 213.401855 338.109344 206.526398 340.069733 201.549286 341.081848 C 196.572174 342.093964 186.697144 343.389587 179.604797 343.961029 C 172.512421 344.532471 159.237427 344.93811 150.104797 344.862488 Z M 306 340 C 306 27.580505 306.148315 12.157043 307.581787 11.606995 C 308.451782 11.273132 325.672943 11 345.851044 11 L 382.538513 11 L 387.417297 23.25 C 390.100647 29.987488 395.18512 42.924988 398.716125 52 C 402.247131 61.075012 405.727295 69.849976 406.449768 71.5 C 407.172302 73.150024 411.852356 84.968079 416.849976 97.76239 C 421.847595 110.556763 432.477539 137.781738 440.472168 158.26239 C 448.466797 178.743103 456.018616 197.525024 457.253906 200 C 459.5 204.5 459.5 204.5 459.708069 114 C 459.82251 64.224976 460.195862 20.6875 460.537659 17.25 L 461.15918 11 L 493.07959 11 L 525 11 L 525 175.5 L 525 340 L 488.17627 340 L 451.352539 340 L 444.175781 322.500214 C 440.228577 312.875336 433.652466 296.787842 429.562195 286.750214 C 425.471985 276.712585 415.811646 252.856659 408.094788 233.73703 C 400.37793 214.617401 389.951355 188.742432 384.924561 176.237061 C 379.897766 163.731689 374.621521 150.856018 373.199585 147.624512 C 371.127502 142.915405 370.467957 142.121338 369.87738 143.624512 C 369.472168 144.656006 369.108948 189.262512 369.070313 242.75 L 369 340 L 337.5 340 L 306 340 Z M 569 340 L 569 11 L 658.918213 11 C 708.37323 11 749.548218 11.273132 750.418213 11.606995 C 751.812561 12.142029 752 15.814331 752 42.59906 L 752 72.984131 L 692.75 73.242065 L 633.5 73.5 L 633.5 107.5 L 633.5 141.5 L 682.620667 141.759338 C 731.741333 142.018677 731.741333 142.018677 732.35968 145.759338 C 732.699768 147.816711 732.982971 159.22467 732.989014 171.110413 C 732.995056 182.996155 732.713806 194.808655 732.364075 197.360413 C 731.728149 202 731.728149 202 684.29834 202 C 653.516113 202 636.189575 202.363342 634.934265 203.035156 C 633.075623 204.029907 633 205.511414 633 240.928192 C 633 273.615234 633.179016 277.854706 634.581787 278.393005 C 635.451782 278.726868 662.167908 279 693.950928 279 C 751.738342 279 751.738342 279 752.358154 282.75 C 752.699036 284.8125 752.982971 295.771484 752.989014 307.103302 C 752.995056 318.43512 752.710876 330.472626 752.357544 333.853302 L 751.715088 340 L 660.357544 340 L 569 340 Z M 161.5 282.360168 C 167 282.115936 174.545959 281.209442 178.268799 280.345734 C 181.991638 279.482025 186.491638 277.807465 188.268799 276.624481 C 190.045959 275.441498 192.301758 272.839752 193.281708 270.842834 C 194.261627 268.845917 195.495728 263.451874 196.024109 258.856049 C 196.555115 254.237579 196.976685 217.847717 196.966614 177.5 C 196.956604 137.349976 196.515808 100.051514 195.987122 94.614502 C 195.380646 88.377991 194.355133 83.580566 193.208832 81.617859 C 192.209503 79.906799 189.892761 77.496582 188.060547 76.261841 C 186.228333 75.0271 182.216766 73.225586 179.145996 72.258423 C 174.614105 70.831116 169.884918 70.5 154.031372 70.5 C 137.727051 70.5 133.591278 70.803955 129 72.339722 C 125.975006 73.351501 122.033356 75.2901 120.240784 76.647644 C 118.448181 78.005188 116.012268 81.002319 114.827576 83.307922 C 113.157257 86.558716 112.450104 90.53125 111.678253 101 C 111.071014 109.235718 110.895813 143.550964 111.228912 189 C 111.699799 253.245453 111.991638 264.119415 113.349213 268 C 114.215057 270.475006 116.178192 273.510559 117.711731 274.745697 C 119.24527 275.980835 123.342224 277.939911 126.81604 279.099213 C 130.289886 280.258514 137.264893 281.566376 142.31604 282.005615 C 147.367218 282.444855 156 282.604401 161.5 282.360168 Z"/>
    <path id="ROOFING" fill="#000000" fill-rule="evenodd" stroke="none" d="M 745.737305 416.073242 L 714.902344 416.073242 L 714.902344 405.306641 C 714.902344 398.519501 714.609375 394.271484 714.023438 392.5625 C 713.4375 390.853516 712.045898 389.999023 709.848633 389.999023 C 707.944336 389.999023 706.650391 390.731445 705.966797 392.196289 C 705.283203 393.661133 704.941406 397.420868 704.941406 403.475586 L 704.941406 460.384766 C 704.941406 465.707062 705.283203 469.210449 705.966797 470.89502 C 706.650391 472.57959 708.017578 473.421875 710.068359 473.421875 C 712.314453 473.421875 713.840332 472.469727 714.645996 470.56543 C 715.45166 468.661133 715.854492 464.950226 715.854492 459.432617 L 715.854492 445.370117 L 709.628906 445.370117 L 709.628906 427.352539 L 745.737305 427.352539 L 745.737305 491 L 726.328125 491 L 723.47168 482.503906 C 721.37207 486.166016 718.723145 488.912598 715.524902 490.743652 C 712.32666 492.574707 708.554688 493.490234 704.208984 493.490234 C 699.033203 493.490234 694.187012 492.23291 689.67041 489.718262 C 685.153809 487.203613 681.723633 484.09082 679.379883 480.379883 C 677.036133 476.668945 675.571289 472.774902 674.985352 468.697754 C 674.399414 464.620605 674.106445 458.504913 674.106445 450.350586 L 674.106445 415.121094 C 674.106445 403.792908 674.716797 395.56546 675.9375 390.438477 C 677.158203 385.311493 680.661621 380.611816 686.447754 376.339355 C 692.233887 372.066895 699.716736 369.930664 708.896484 369.930664 C 717.929749 369.930664 725.424805 371.786133 731.381836 375.49707 C 737.338867 379.208008 741.220703 383.614716 743.027344 388.717285 C 744.833984 393.819855 745.737305 401.229431 745.737305 410.946289 Z M 632.607422 372.420898 L 632.607422 491 L 605.581055 491 L 589.541016 437.09375 L 589.541016 491 L 563.759766 491 L 563.759766 372.420898 L 589.541016 372.420898 L 606.826172 425.814453 L 606.826172 372.420898 Z M 521.381836 372.420898 L 521.381836 491 L 490.546875 491 L 490.546875 372.420898 Z M 400.854492 372.420898 L 453.076172 372.420898 L 453.076172 396.151367 L 431.689453 396.151367 L 431.689453 418.636719 L 450.732422 418.636719 L 450.732422 441.195313 L 431.689453 441.195313 L 431.689453 491 L 400.854492 491 Z M 359.355469 441.854492 C 359.355469 453.768616 359.074707 462.203583 358.513184 467.159668 C 357.95166 472.115753 356.193848 476.644531 353.239746 480.746094 C 350.285645 484.847656 346.293976 487.99707 341.264648 490.194336 C 336.235321 492.391602 330.376007 493.490234 323.686523 493.490234 C 317.338837 493.490234 311.638214 492.452637 306.584473 490.377441 C 301.530731 488.302246 297.46582 485.189453 294.389648 481.039063 C 291.313477 476.888672 289.482422 472.372101 288.896484 467.489258 C 288.310547 462.606415 288.017578 454.061584 288.017578 441.854492 L 288.017578 421.566406 C 288.017578 409.652283 288.29834 401.217316 288.859863 396.26123 C 289.421387 391.305145 291.179199 386.776367 294.133301 382.674805 C 297.087402 378.573242 301.079071 375.423828 306.108398 373.226563 C 311.137726 371.029297 316.99704 369.930664 323.686523 369.930664 C 330.03421 369.930664 335.734833 370.968262 340.788574 373.043457 C 345.842316 375.118652 349.907227 378.231445 352.983398 382.381836 C 356.05957 386.532227 357.890625 391.048798 358.476563 395.931641 C 359.0625 400.814484 359.355469 409.359314 359.355469 421.566406 Z M 328.520508 402.889648 C 328.520508 397.37204 328.215332 393.844238 327.60498 392.306152 C 326.994629 390.768066 325.737305 389.999023 323.833008 389.999023 C 322.22168 389.999023 320.98877 390.621582 320.134277 391.866699 C 319.279785 393.111816 318.852539 396.786102 318.852539 402.889648 L 318.852539 458.260742 C 318.852539 465.145538 319.133301 469.393555 319.694824 471.004883 C 320.256348 472.616211 321.5625 473.421875 323.613281 473.421875 C 325.712891 473.421875 327.055664 472.494141 327.641602 470.638672 C 328.227539 468.783203 328.520508 464.364288 328.520508 457.381836 Z M 247.397461 441.854492 C 247.397461 453.768616 247.116699 462.203583 246.555176 467.159668 C 245.993652 472.115753 244.23584 476.644531 241.281738 480.746094 C 238.327637 484.847656 234.335968 487.99707 229.306641 490.194336 C 224.277313 492.391602 218.417999 493.490234 211.728516 493.490234 C 205.380829 493.490234 199.680206 492.452637 194.626465 490.377441 C 189.572723 488.302246 185.507813 485.189453 182.431641 481.039063 C 179.355469 476.888672 177.524414 472.372101 176.938477 467.489258 C 176.352539 462.606415 176.05957 454.061584 176.05957 441.854492 L 176.05957 421.566406 C 176.05957 409.652283 176.340332 401.217316 176.901855 396.26123 C 177.463379 391.305145 179.221191 386.776367 182.175293 382.674805 C 185.129395 378.573242 189.121063 375.423828 194.150391 373.226563 C 199.179718 371.029297 205.039032 369.930664 211.728516 369.930664 C 218.076202 369.930664 223.776825 370.968262 228.830566 373.043457 C 233.884308 375.118652 237.949219 378.231445 241.025391 382.381836 C 244.101563 386.532227 245.932617 391.048798 246.518555 395.931641 C 247.104492 400.814484 247.397461 409.359314 247.397461 421.566406 Z M 216.5625 402.889648 C 216.5625 397.37204 216.257324 393.844238 215.646973 392.306152 C 215.036621 390.768066 213.779297 389.999023 211.875 389.999023 C 210.263672 389.999023 209.030762 390.621582 208.17627 391.866699 C 207.321777 393.111816 206.894531 396.786102 206.894531 402.889648 L 206.894531 458.260742 C 206.894531 465.145538 207.175293 469.393555 207.736816 471.004883 C 208.29834 472.616211 209.604492 473.421875 211.655273 473.421875 C 213.754883 473.421875 215.097656 472.494141 215.683594 470.638672 C 216.269531 468.783203 216.5625 464.364288 216.5625 457.381836 Z M 66.152344 372.420898 L 87.978516 372.420898 C 102.529358 372.420898 112.380341 372.982422 117.531738 374.105469 C 122.683136 375.228516 126.882324 378.097137 130.129395 382.711426 C 133.376465 387.325714 135 394.686462 135 404.793945 C 135 414.022522 133.852539 420.223633 131.557617 423.397461 C 129.262695 426.571289 124.746124 428.475586 118.007813 429.110352 C 124.111359 430.624023 128.212891 432.650391 130.3125 435.189453 C 132.412109 437.728516 133.718262 440.060059 134.230957 442.184082 C 134.743652 444.308105 135 450.155212 135 459.725586 L 135 491 L 106.362305 491 L 106.362305 451.595703 C 106.362305 445.248016 105.861816 441.317383 104.86084 439.803711 C 103.859863 438.290039 101.235382 437.533203 96.987305 437.533203 L 96.987305 491 L 66.152344 491 Z M 96.987305 392.708984 L 96.987305 419.076172 C 100.454132 419.076172 102.883301 418.600098 104.274902 417.647949 C 105.666504 416.695801 106.362305 413.607452 106.362305 408.382813 L 106.362305 401.864258 C 106.362305 398.104492 105.690918 395.638672 104.348145 394.466797 C 103.005371 393.294922 100.551788 392.708984 96.987305 392.708984 Z"/>
</svg>
