<?xml version="1.0" encoding="UTF-8"?>
<!-- Generated by Pixelmator Pro 3.6.16 -->
<svg width="283" height="150" viewBox="0 0 283 150" xmlns="http://www.w3.org/2000/svg">
    <path id="Path" fill="#010101" fill-rule="evenodd" stroke="none" d="M 107 11 L 107 135 L 131 135 L 131 60 L 163 135 L 191 135 L 191 10 L 166 10 L 166 84 L 136 10 L 107 10 L 107 11 Z"/>
    <path id="path1" fill="#010101" fill-rule="evenodd" stroke="none" d="M 207 11 L 207 135 L 277 135 L 277 112 L 232 112 L 232 83 L 269 83 L 269 60 L 232 60 L 232 34 L 277 34 L 277 10 L 207 10 L 207 11 Z"/>
    <path id="Shape" fill="#010101" fill-rule="evenodd" stroke="none" d="M 52.5 136.54454 C 44.25 136.729401 35.385475 136.498108 32.80106 136.030548 C 30.21664 135.562958 25.827192 133.94223 23.046728 132.428925 C 20.266266 130.915588 16.850859 128.18219 15.456934 126.354652 C 14.06301 124.527122 12.171098 121.112198 11.252684 118.765938 C 9.833839 115.141228 9.52134 109.08873 9.173695 78.5 C 8.917768 55.981445 9.166452 39.615494 9.837766 34.797409 C 10.428034 30.560974 11.8045 25.343369 12.896577 23.202728 C 13.988654 21.062073 16.485687 17.90274 18.445541 16.181961 C 20.405394 14.461182 24.594406 12.266312 27.754456 11.304443 C 32.178902 9.957733 37.186543 9.549225 49.533024 9.527817 C 62.102234 9.506012 66.770752 9.879532 71.142281 11.256729 C 74.209213 12.222946 78.469353 14.282639 80.609261 15.833847 C 82.749168 17.385056 85.766548 20.983795 87.314545 23.831039 C 89.489532 27.831497 90.326256 31.108856 90.996742 38.253922 C 91.473946 43.339264 91.709686 59.425003 91.520607 74 C 91.331528 88.574997 90.986862 103.980484 90.754684 108.234413 C 90.425636 114.263351 89.689491 117.220253 87.416275 121.644066 C 85.366127 125.633766 83.068954 128.303024 79.681618 130.631531 C 77.031509 132.453247 73.206505 134.453308 71.181618 135.07608 C 69.156731 135.698853 60.75 136.359665 52.5 136.54454 Z M 50.202946 112.936615 C 55.016769 112.971672 60.090473 112.460274 61.556698 111.792213 C 63.014641 111.12793 64.610817 109.523636 65.103752 108.227112 C 65.596687 106.930588 66 90.84919 66 72.490662 C 66 39.111526 66 39.111526 63.586597 36.305786 C 61.348068 33.703339 60.549595 33.474426 52.566769 33.146591 C 47.833229 32.952194 42.805508 33.082977 41.394047 33.437241 C 39.982586 33.791489 37.741512 35.167572 36.413879 36.495209 C 34 38.909088 34 38.909088 34 73.263412 C 34 99.198517 34.306339 108.022881 35.25 109.270912 C 35.9375 110.180161 37.625 111.36264 39 111.898659 C 40.375 112.434669 45.416325 112.901749 50.202946 112.936615 Z"/>
</svg>
