<svg version="1.1" id="Layer_1" xmlns="http://www.w3.org/2000/svg" xmlns:xlink="http://www.w3.org/1999/xlink" x="0px" y="0px"
	 width="100%" viewBox="0 0 1024 976" enable-background="new 0 0 1024 976" xml:space="preserve">
<path fill="#000000" opacity="1.000000" stroke="none" 
	d="
M625.571594,636.413208 
	C606.282349,636.398926 587.448853,636.281189 568.618286,636.469727 
	C565.035339,636.505493 563.211182,635.399841 561.891602,632.125244 
	C547.698547,596.904846 533.397034,561.728210 519.121155,526.541138 
	C510.605560,505.551941 502.088043,484.563507 493.548645,463.584015 
	C493.119293,462.529144 492.722229,461.373291 491.259613,460.755463 
	C489.268188,461.978912 489.810760,464.078674 489.688873,465.943390 
	C488.752319,480.272156 490.063843,494.584747 489.993622,508.913483 
	C489.796814,549.077332 489.958252,589.242920 489.954681,629.407776 
	C489.954071,636.435486 489.900848,636.374084 482.857910,636.384705 
	C466.860535,636.408813 450.860138,636.341248 434.867676,636.653137 
	C429.619629,636.755493 429.838013,633.670288 429.838501,630.179626 
	C429.844238,589.514709 429.828857,548.849731 429.827759,508.184784 
	C429.826263,452.853851 429.832825,397.522919 429.834473,342.191986 
	C429.834717,334.225647 429.957214,334.061035 437.870819,334.052399 
	C457.203278,334.031342 476.536774,334.149139 495.867584,333.970032 
	C500.186951,333.929993 502.424713,335.404785 504.014984,339.487122 
	C518.158142,375.793243 532.510315,412.017914 546.768555,448.279266 
	C553.653503,465.788910 560.461426,483.328796 567.328064,500.845673 
	C568.035217,502.649658 568.371887,504.707184 570.459167,506.035095 
	C572.513306,504.349030 571.667053,502.039520 571.669006,500.085022 
	C571.720459,447.253937 571.712463,394.422852 571.717224,341.591736 
	C571.717834,334.126862 571.724304,334.104523 579.183289,334.084564 
	C594.682617,334.043152 610.181885,334.021271 625.681213,334.005096 
	C632.097656,333.998413 632.277161,334.135773 632.278259,340.311523 
	C632.295471,437.307434 632.252258,534.303406 632.425720,631.299011 
	C632.435486,636.736633 629.931458,636.931946 625.571594,636.413208 
z"/>
<path fill="#000000" opacity="1.000000" stroke="none" 
	d="
M268.959351,640.222778 
	C246.216019,638.736572 225.297577,633.995422 209.614105,616.241760 
	C200.522537,605.950134 197.085175,593.432190 194.597565,580.363037 
	C192.120499,567.349365 192.272827,554.210144 192.187347,541.103149 
	C191.974380,508.447266 192.033417,475.788757 192.154694,443.131958 
	C192.210312,428.159821 191.878677,413.149719 193.520874,398.240448 
	C194.665817,387.845886 196.267487,377.450348 200.497711,367.759277 
	C208.543198,349.327789 223.163284,338.782715 242.406509,334.934937 
	C265.202789,330.376648 288.300995,329.715515 311.498566,331.429504 
	C321.960846,332.202515 332.377472,332.865967 342.603058,335.497986 
	C369.739746,342.482758 388.464600,364.438171 391.602478,392.214172 
	C392.934387,404.004089 393.276031,415.763306 393.276337,427.575745 
	C393.277313,467.064362 393.334137,506.553101 393.230835,546.041443 
	C393.195129,559.688904 392.220551,573.237366 389.511871,586.709656 
	C384.581757,611.231323 369.267059,626.119507 346.598450,634.385132 
	C335.577789,638.403564 323.996521,639.597473 312.321136,640.272461 
	C298.010376,641.099915 283.724213,641.656433 268.959351,640.222778 
M330.842255,498.500000 
	C330.629578,469.695343 331.370392,440.885193 329.896271,412.087036 
	C329.233124,399.131805 325.712402,393.831299 313.045135,391.040741 
	C299.421570,388.039581 285.576965,388.130096 271.926453,390.966919 
	C259.756470,393.496033 254.635010,399.912476 254.202362,412.214020 
	C253.792801,423.859558 253.323593,435.514099 253.372757,447.162628 
	C253.530960,484.633728 253.914093,522.103882 254.223083,559.574341 
	C254.235413,561.070312 254.356903,562.566467 254.459717,564.060364 
	C255.022034,572.230225 259.254272,577.088989 267.263641,579.138184 
	C282.720825,583.093079 298.295166,583.123047 313.801270,580.268433 
	C325.683014,578.081055 329.144287,572.815918 329.905701,560.423401 
	C331.153137,540.121155 330.699005,519.809631 330.842255,498.500000 
z"/>
<path fill="#000000" opacity="1.000000" stroke="none" 
	d="
M763.999878,392.345459 
	C755.335205,392.349670 747.170532,392.336578 739.005920,392.363129 
	C732.624451,392.383911 731.479797,393.503448 731.526978,399.981171 
	C731.571838,406.140228 731.910583,412.298950 731.874573,418.456390 
	C731.821960,427.449158 731.473877,436.439972 731.394531,445.432892 
	C731.326355,453.162811 731.987305,453.784027 739.505981,453.784271 
	C764.999756,453.785034 790.494385,453.864471 815.986511,453.653503 
	C820.728638,453.614227 822.413025,454.961609 822.331787,459.843597 
	C822.079712,475.002197 822.138184,490.169373 822.335266,505.329834 
	C822.387390,509.343994 821.287842,511.037628 817.037842,511.005432 
	C790.548950,510.804688 764.058228,510.850433 737.569580,510.630951 
	C733.234253,510.595032 731.235474,512.296936 731.482117,516.444214 
	C732.601196,535.261169 731.342346,554.069397 731.344971,572.881409 
	C731.345520,576.869446 732.971313,578.664429 737.002014,578.652405 
	C769.492920,578.555420 801.984192,578.566406 834.474854,578.429382 
	C840.375305,578.404480 840.931702,578.636963 840.938416,584.294312 
	C840.956848,599.778748 840.875366,615.263733 840.998596,630.747253 
	C841.031128,634.836487 839.975220,636.521667 835.349487,636.510254 
	C806.528992,636.439087 777.707520,636.861145 748.886597,636.838379 
	C724.242371,636.818909 699.599121,636.007507 674.953979,636.613770 
	C671.927795,636.688171 670.589661,635.674133 670.727783,632.653137 
	C670.803772,630.990601 670.726440,629.321350 670.726440,627.655090 
	C670.727783,532.345032 670.729004,437.034943 670.734131,341.724854 
	C670.734497,334.096649 670.747253,334.050781 678.566956,334.047607 
	C730.554260,334.026459 782.541809,334.081573 834.528687,333.930176 
	C839.444519,333.915894 840.756897,335.547150 840.630066,340.308807 
	C840.221985,355.624969 839.982239,370.957275 840.904602,386.268890 
	C841.168152,390.644348 839.783691,392.460205 834.981079,392.416351 
	C811.489075,392.201904 787.993958,392.335022 763.999878,392.345459 
z"/>
</svg>