<?xml version="1.0" encoding="UTF-8"?>
<svg id="Layer_1" data-name="Layer 1" xmlns="http://www.w3.org/2000/svg" viewBox="0 0 206.33 72">
  <defs>
    <style>
      .cls-1 {
        fill: #009bd7;
      }

      .cls-1, .cls-2, .cls-3, .cls-4 {
        stroke-width: 0px;
      }

      .cls-2 {
        fill: #3fcfd5;
      }

      .cls-3 {
        fill: #7dc242;
      }

      .cls-4 {
        fill: #003359;
      }
    </style>
  </defs>
  <g>
    <g>
      <path class="cls-1" d="M23.62,61.54c4.06,3.93,8.56,7.4,13.45,10.29.39.23.89.23,1.28,0,14.15-8.38,25.19-21.46,30.98-37.09.22-.59-.33-1.21-.94-1.07-20.03,4.55-34.3,14.96-44.81,26.74-.29.32-.27.82.04,1.12Z"/>
      <path class="cls-2" d="M.12,41.84c3.31,6.99,6.97,12.88,11.84,18.77.32.39.92.38,1.24-.02,6.32-7.89,14.51-14.13,23.41-19.67,12.35-7.69,27.07-12.89,41.92-14.77.5-.06.92-.42,1.04-.91.49-2.11.6-2.5.94-4.53.07-.43-.2-.85-.63-.93C56.09,14.89,25.12,17.3.4,40.38c-.4.37-.51.97-.28,1.46Z"/>
    </g>
    <path class="cls-3" d="M73.03,12.99s.06,0,.1,0c.34,0,.6-.27.62-.62h0c.02-.66.04-1.43.05-1.98,0-.46-.23-.88-.63-1.1C62.7,3.38,50.6,0,37.71,0S12.73,3.39,2.25,9.31c-.39.22-.64.65-.63,1.1.06,5.79.81,11.41,2.15,16.79.1.41.59.59.94.35,4.72-3.2,9.74-5.95,14.99-8.2,5.21-2.24,10.63-3.98,16.17-5.21,6.05-1.35,12.23-2.13,18.43-2.29,6.26-.16,12.54.22,18.74,1.15h0Z"/>
  </g>
  <g>
    <g>
      <path class="cls-4" d="M88.96,60.12c0-2.37.45-4.44,1.36-6.2.91-1.76,2.19-3.12,3.85-4.08,1.66-.96,3.66-1.44,5.99-1.44s4.3.48,5.98,1.44c1.67.96,2.97,2.32,3.9,4.08.93,1.76,1.39,3.81,1.39,6.16s-.46,4.44-1.38,6.21c-.92,1.77-2.22,3.14-3.9,4.11-1.68.97-3.68,1.46-5.99,1.46s-4.3-.49-5.98-1.46c-1.67-.97-2.96-2.34-3.87-4.11-.91-1.77-1.36-3.83-1.36-6.18ZM94.24,60.12c0,2.35.5,4.19,1.49,5.52.99,1.33,2.47,1.99,4.44,1.99s3.42-.66,4.44-1.99c1.01-1.33,1.52-3.17,1.52-5.52s-.5-4.21-1.51-5.52c-1-1.31-2.49-1.96-4.45-1.96s-3.44.65-4.44,1.96c-.99,1.31-1.49,3.14-1.49,5.52Z"/>
      <path class="cls-4" d="M129.1,56.48c-.96-1.11-2.4-1.67-4.32-1.67-1.29,0-2.44.3-3.45.89-.82.49-1.48,1.14-1.99,1.96l-.22-1.88c-.04-.35-.34-.61-.69-.61h-3.46c-.35,0-.61.3-.56.65.06.48.1.97.12,1.46.03.71.05,1.42.05,2.14v11.45c0,.38.31.69.69.69h3.51c.38,0,.69-.31.69-.69v-8.5c0-1.14.33-2.06.99-2.73.66-.68,1.53-1.02,2.61-1.02.84,0,1.48.25,1.93.74.44.5.66,1.34.66,2.52v8.99c0,.38.31.69.69.69h3.51c.38,0,.69-.31.69-.69v-9.21c0-2.33-.48-4.05-1.44-5.16Z"/>
      <path class="cls-4" d="M163.36,55.17h-3.45c-.35,0-.64.26-.68.61l-.23,1.86c-.39-.74-.98-1.35-1.79-1.85-1.05-.65-2.23-.97-3.55-.97-1.42,0-2.68.34-3.76,1.02-1.08.68-1.92,1.66-2.53,2.93-.61,1.27-.91,2.79-.91,4.56s.3,3.3.89,4.6c.59,1.29,1.44,2.28,2.53,2.94,1.09.67,2.35,1,3.77,1,1.29,0,2.46-.31,3.5-.92.74-.44,1.3-.99,1.69-1.65l.02,1.68c0,.31.26.56.57.56h3.72c.31,0,.57-.26.57-.57v-11.57c0-.71.02-1.42.06-2.14.03-.5.07-.99.12-1.47.04-.34-.22-.63-.56-.63ZM157.88,67.03c-.69.79-1.6,1.18-2.72,1.18s-2.06-.39-2.74-1.18c-.68-.79-1.02-2.02-1.02-3.71s.34-2.89,1.04-3.67c.69-.79,1.6-1.18,2.72-1.18s2.03.39,2.72,1.18c.69.79,1.04,2.01,1.04,3.67s-.35,2.92-1.04,3.71Z"/>
      <path class="cls-4" d="M181.2,51.88v-2.91c0-.31.26-.57.57-.57h4.14c.31,0,.57.26.57.57v2.91c0,.31-.26.57-.57.57h-4.14c-.31,0-.57-.26-.57-.57ZM181.36,70.97v-15.24c0-.31.26-.57.57-.57h3.75c.31,0,.57.26.57.57v15.24c0,.31-.26.57-.57.57h-3.75c-.31,0-.57-.26-.57-.57Z"/>
      <path class="cls-4" d="M197.71,71.87c-1.75,0-3.27-.34-4.55-1.04-1.28-.69-2.28-1.67-2.98-2.95-.7-1.27-1.05-2.79-1.05-4.56s.35-3.28,1.05-4.53c.7-1.25,1.69-2.23,2.98-2.93,1.28-.7,2.81-1.05,4.58-1.05s3.27.35,4.55,1.05c1.28.7,2.28,1.69,2.98,2.96.7,1.27,1.05,2.77,1.05,4.5s-.35,3.29-1.05,4.56c-.7,1.27-1.69,2.25-2.98,2.95-1.28.69-2.81,1.04-4.58,1.04ZM197.74,68.21c1.1,0,1.99-.39,2.66-1.18.67-.79,1-2.01,1-3.67s-.33-2.92-1-3.71c-.67-.79-1.55-1.18-2.66-1.18s-2.02.39-2.69,1.18c-.67.79-1,2.02-1,3.71s.33,2.89.99,3.67c.66.79,1.56,1.18,2.7,1.18Z"/>
      <path class="cls-4" d="M178.58,54.91c-.07-.02-.15-.04-.22-.05-.23-.03-.57-.05-1.02-.05-.91,0-1.72.18-2.44.55-.72.37-1.33.93-1.81,1.68-.19.3-.35.63-.5.99l-.28-2.27c-.04-.35-.34-.61-.68-.61h-3.46c-.35,0-.61.3-.56.65.06.49.1.98.12,1.49.03.73.05,1.47.05,2.2v11.47c0,.31.26.57.57.57h3.81c.31,0,.57-.26.57-.57v-7.62c0-.93.13-1.73.4-2.41.27-.68.71-1.19,1.33-1.54.61-.34,1.38-.52,2.28-.52.45,0,.83.03,1.15.08.13.02.28.07.44.11h0s.1.02.15.02c.31,0,.56-.25.57-.56l.05-2.97c0-.31-.21-.58-.5-.66Z"/>
      <path class="cls-4" d="M144.6,70.93h0v-2.55h0c0-.31-.26-.57-.57-.57-.05,0-.1,0-.15.02-.04.01-.08.02-.13.03-.28.07-.62.1-1,.1-.69,0-1.25-.2-1.68-.59-.43-.39-.65-1.14-.65-2.18v-6.42h3.64c.31,0,.57-.26.57-.57v-2.45c0-.31-.26-.57-.57-.57h-3.64v-4.17c0-.31-.26-.57-.57-.57h-3.75c-.31,0-.57.26-.57.57v4.17h-2.54c-.31,0-.57.26-.57.57v2.45c0,.31.26.57.57.57h2.54v6.65c0,2.17.54,3.79,1.62,4.86,1.08,1.07,2.69,1.6,4.82,1.6.43,0,.87-.03,1.33-.1.3-.04.59-.12.87-.21.25-.1.43-.34.43-.63Z"/>
    </g>
    <g>
      <path class="cls-4" d="M165.3,42.01V10.53c0-.38.31-.69.69-.69h5.9c.38,0,.69.31.69.69v31.48c0,.38-.31.69-.69.69h-5.9c-.38,0-.69-.31-.69-.69Z"/>
      <path class="cls-4" d="M204.4,28.02c-1.03-1.11-2.4-1.88-4.1-2.33,1.38-.52,2.51-1.3,3.4-2.33,1.17-1.37,1.75-3.05,1.75-5.03,0-2.64-.98-4.71-2.94-6.22-1.96-1.51-4.74-2.26-8.35-2.26h-14.47c-.38,0-.69.31-.69.69v31.48c0,.38.31.69.69.69h14.98c3.64,0,6.49-.82,8.56-2.45,2.07-1.63,3.1-3.89,3.1-6.78,0-2.24-.65-4.06-1.94-5.45ZM185.95,15.82c0-.31.26-.57.57-.57h6.33c1.9,0,3.3.33,4.22,1,.92.67,1.38,1.69,1.38,3.05s-.46,2.34-1.38,3.01c-.92.67-2.33,1-4.22,1h-6.33c-.31,0-.57-.26-.57-.57v-6.92ZM197.94,36.27c-.96.65-2.35.98-4.15.98h-7.27c-.31,0-.57-.26-.57-.57v-7.39c0-.31.26-.57.57-.57h7.27c1.8,0,3.19.33,4.15,1,.96.67,1.45,1.78,1.45,3.33s-.48,2.56-1.45,3.22Z"/>
      <path class="cls-4" d="M158.32,27.18c-1.51-1.46-3.78-2.5-6.83-3.12l-5.45-1.07c-1.65-.31-2.8-.76-3.45-1.35-.65-.59-.98-1.35-.98-2.28,0-1.27.54-2.25,1.61-2.94,1.07-.68,2.62-1.03,4.64-1.03s3.67.25,5.24.75c1.35.43,2.59,1.07,3.74,1.91.22.15.52.1.72-.09.06-.06.1-.14.13-.21l1.64-4.23c.09-.23.04-.49-.13-.69-1.26-1.03-2.81-1.86-4.68-2.47-2.02-.65-4.2-.98-6.53-.98-2.7,0-5.07.43-7.11,1.28-2.04.85-3.62,2.07-4.75,3.64-1.13,1.57-1.7,3.4-1.7,5.48,0,2.49.75,4.48,2.26,5.99,1.51,1.51,3.77,2.57,6.78,3.19l5.41,1.12c1.74.34,2.92.76,3.54,1.26.62.5.93,1.23.93,2.19,0,1.09-.47,1.97-1.42,2.63-.95.67-2.54,1-4.78,1-1.43,0-2.8-.13-4.13-.4-1.32-.26-2.56-.64-3.73-1.12-.96-.39-1.87-.86-2.76-1.39h0c-.08-.05-.18-.07-.29-.07-.24,0-.45.15-.53.37h0l-1.7,4.48h0c-.03.08-.05.16-.05.25,0,.11.02.22.06.31.03.07.08.13.14.18,1.55,1.04,3.38,1.86,5.52,2.46,2.3.64,4.78.96,7.46.96s5.06-.42,7.06-1.26,3.57-2.03,4.68-3.57c1.12-1.54,1.68-3.32,1.68-5.34,0-2.42-.75-4.37-2.26-5.83Z"/>
      <path class="cls-4" d="M108.03,9.84c-.3,0-.56.19-.66.47l-6.47,19.71-5.78-19.69c-.09-.29-.36-.5-.66-.5h-6.26c-.39,0-.66.37-.54.74l10.06,31.81c.06.19.23.32.43.32h4.35c.19,0,.37-.12.43-.31l7.45-21.63,7.45,21.63c.06.18.24.31.43.31h4.35c.2,0,.37-.13.43-.32l10.06-31.81c.12-.37-.16-.74-.54-.74h-6.26c-.31,0-.58.2-.66.5l-5.78,19.69-6.47-19.71c-.09-.28-.36-.47-.66-.47h-4.7Z"/>
    </g>
  </g>
</svg>